# xmcd
#
# Track frame offsets:
#	150
#	12315
#	26608
#	38115
#	53550
#	66970
#	81498
#	93453
#	104165
#	116193
#	128850
#	142505
#	172000
#	183020
#
# Disc length: 2602
#
# Revision: 2
# Processed by: cddbd v1.5.1PL0 Copyright (c) Steve Scherf et al.
# Submitted via: CDex 1.51
# Normalized: r1:DSETVAR1,TDELIM( - )
#
DISCID=bd0a280e
DTITLE=Various Artist - Stars Of The Apollo   [CD2]
DYEAR=1972
DGENRE=Blues
TTITLE0=When My Baby Left Me - Eddie ''Cleanhead'' Vinson w-Cootie Williams and His Orchestra
TTITLE1=I got a Uncle in Harlem - ''Hot Lips' Page and His Orchestra
TTITLE2=Sploghm - Sam Gaillard and His Flat Foot Floogie Boys
TTITLE3=Four Day Creep - Ida Cox and Her All Star Band
TTITLE4=Wherever You Are - Billie Holiday w-Teddy Wilson and His Orchestra
TTITLE5=Lose the Blackout Blues - Count Basie and His Orchestra w-Jimmy Rushing
TTITLE6=Stop, You're Breakin' My Heart - Count Basie and His Orchestra w-Maxine Sullivan
TTITLE7=Saturday Night Fish Fry - Pearl Bailey and Jackie ''Moms'' Mabley
TTITLE8=Gabbin' Blues - Big Maybelle acc. by Leroy Kirkland and His Orchestra
TTITLE9=You're just an Old Antidisestablish-mentarian Ismist - Duke Ellington and His Orchestra
TTITLE10=Ain't Misbehavin' - Sarah Vaughn w-Limmy Jones' Band
TTITLE11=Venus Velvet - Bobby Brown Quartet
TTITLE12=I put a Spell on You - Screamin' Jay Hawkins
TTITLE13=Evil Gal Blues - Aretha Franklin
EXTD=YEAR: 1972
EXTT0=
EXTT1=
EXTT2=
EXTT3=
EXTT4=
EXTT5=
EXTT6=
EXTT7=
EXTT8=
EXTT9=
EXTT10=
EXTT11=
EXTT12=
EXTT13=
PLAYORDER=
